<svg id="Layer_1" height="512" viewBox="0 0 512 512" width="512" xmlns="http://www.w3.org/2000/svg" data-name="Layer 1"><path d="m501 446.04v6.31a20.592 20.592 0 0 1 -20.59 20.59h-448.82a20.592 20.592 0 0 1 -20.59-20.59v-6.31z" fill="#7d8595"/><path d="m463.76 326.735a19.53 19.53 0 0 0 -19.39-15.735h-376.74a19.53 19.53 0 0 0 -19.39 15.735l-37.24 119.265h490z" fill="#b0b5ca"/><path d="m460.65 60.65v231.14a19.755 19.755 0 0 1 -19.75 19.76h-369.8a19.755 19.755 0 0 1 -19.75-19.76v-231.14a20.586 20.586 0 0 1 20.59-20.59h368.12a20.586 20.586 0 0 1 20.59 20.59z" fill="#7d8595"/><path d="m429.85 339.26 17.82 74.26h-383.34l17.82-74.26z" fill="#6d7486"/><path d="m433.8 80.48v191.32a16.034 16.034 0 0 1 -16.03 16.03h-323.54a16.034 16.034 0 0 1 -16.03-16.03v-191.32a16.715 16.715 0 0 1 16.71-16.71h322.18a16.715 16.715 0 0 1 16.71 16.71z" fill="#a5e2fb"/><g fill="#f3ce7d"><path d="m382.23 165.85h27.97v101.83h-27.97z"/><path d="m321.14 137.11h27.98v130.57h-27.98z"/><path d="m260.06 194.59h27.97v73.09h-27.97z"/><path d="m198.97 246.32h27.97v21.36h-27.97z"/></g><path d="m108 271.8v-191.32a16.692 16.692 0 0 1 16.91-16.48h-30a16.692 16.692 0 0 0 -16.91 16.48v191.32a16.352 16.352 0 0 0 16.23 16.2h30a16.352 16.352 0 0 1 -16.23-16.2z" fill="#88c2d3"/><path d="m213.54 129.93v14.47l-5.91.94a13.467 13.467 0 0 0 -10.31 8.19c-.02.05-.04.1-.06.14a13.484 13.484 0 0 0 1.48 13.13l3.52 4.84-10.23 10.24-4.85-3.52a13.468 13.468 0 0 0 -13.12-1.48c-.05.02-.1.04-.14.06a13.46 13.46 0 0 0 -8.2 10.3l-.94 5.92h-14.47l-.94-5.92a13.46 13.46 0 0 0 -8.2-10.3c-.04-.02-.09-.04-.14-.06a13.468 13.468 0 0 0 -13.12 1.48l-4.85 3.52-10.23-10.24 3.52-4.84a13.535 13.535 0 0 0 1.48-13.13c-.02-.04-.04-.09-.06-.14a13.467 13.467 0 0 0 -10.31-8.19l-5.92-.94v-14.47l5.92-.94a13.459 13.459 0 0 0 10.31-8.2c.02-.04.04-.09.06-.14a13.519 13.519 0 0 0 -1.48-13.12l-3.52-4.85 10.23-10.23 4.85 3.52a13.491 13.491 0 0 0 13.12 1.47c.05-.02.1-.03.14-.05a13.459 13.459 0 0 0 8.2-10.31l.94-5.92h14.47l.94 5.92a13.459 13.459 0 0 0 8.2 10.31c.04.02.09.03.14.05a13.491 13.491 0 0 0 13.12-1.47l4.85-3.52 10.23 10.23-3.52 4.85a13.468 13.468 0 0 0 -1.48 13.12c.02.05.04.1.06.14a13.459 13.459 0 0 0 10.31 8.2z" fill="#5fa8ed"/><circle cx="157.54" cy="137.16" fill="#4e7fa0" r="23.87"/><path d="m218.81 183.421h51.815v12h-51.815z" fill="#b0b5ca" transform="matrix(.735 -.678 .678 .735 -63.585 216.19)"/><path d="m275.296 125.458h55.447v12h-55.447z" fill="#b0b5ca" transform="matrix(.733 -.68 .68 .733 -8.486 241.306)"/><path d="m360.778 96.514h12v39.314h-12z" fill="#b0b5ca" transform="matrix(.404 -.915 .915 .404 112.456 404.861)"/><path d="m104.084 209.833a6 6 0 0 1 -6-6v-4.295a6 6 0 0 1 12 0v4.295a6 6 0 0 1 -6 6z" fill="#f4f8fc"/><path d="m104.084 268a6 6 0 0 1 -6-6v-37.167a6 6 0 0 1 12 0v37.167a6 6 0 0 1 -6 6z" fill="#f4f8fc"/><path d="m212.825 233.785a20.37 20.37 0 1 1 20.37-20.369 20.392 20.392 0 0 1 -20.37 20.369z" fill="#4ca987"/><path d="m273.912 182.055a20.37 20.37 0 1 1 20.37-20.37 20.392 20.392 0 0 1 -20.37 20.37z" fill="#4ca987"/><path d="m335 124.576a20.37 20.37 0 1 1 20.37-20.369 20.393 20.393 0 0 1 -20.37 20.369z" fill="#4ca987"/><path d="m396.086 153.315a20.37 20.37 0 1 1 20.37-20.369 20.391 20.391 0 0 1 -20.37 20.369z" fill="#4ca987"/></svg>