<svg id="Line" height="512" viewBox="0 0 64 64" width="512" xmlns="http://www.w3.org/2000/svg"><path d="m59.981 10.281h-7.548l1.293-1.293a1 1 0 1 0 -1.414-1.414l-3 3a1 1 0 0 0 0 1.417l3 3a1 1 0 0 0 1.414-1.414l-1.293-1.293h7.548a1 1 0 0 1 1 1v4.5a1 1 0 0 0 2 0v-4.5a3 3 0 0 0 -3-3.003z" fill="#c4a2fc"/><path d="m60 22.781h-38a3 3 0 0 0 -3 3v26a3 3 0 0 0 3 3h19.531l3.933 4.719a2 2 0 0 0 3.073 0l3.932-4.719h7.531a3 3 0 0 0 3-3v-26a3 3 0 0 0 -3-3zm-7 23h-24a1 1 0 0 1 0-2h24a1 1 0 0 1 0 2zm0-6h-24a1 1 0 0 1 0-2h24a1 1 0 0 1 0 2zm0-6h-24a1 1 0 0 1 0-2h24a1 1 0 0 1 0 2z" fill="#c4a2fc"/><g fill="#151a6a"><path d="m42 3.781h-38a3 3 0 0 0 -3 3v32a3 3 0 0 0 3 3h4.531l3.933 4.719a2 2 0 0 0 3.073 0l3.932-4.719h22.531a3 3 0 0 0 3-3v-32a3 3 0 0 0 -3-3zm1 35a1 1 0 0 1 -1 1h-23a1 1 0 0 0 -.769.36l-4.231 5.078-4.231-5.078a1 1 0 0 0 -.769-.36h-5a1 1 0 0 1 -1-1v-32a1 1 0 0 1 1-1h38a1 1 0 0 1 1 1z"/><path d="m35 14.781h-24a1 1 0 1 0 0 2h24a1 1 0 1 0 0-2z"/><path d="m35 21.781h-24a1 1 0 0 0 0 2h24a1 1 0 0 0 0-2z"/><path d="m35 28.781h-24a1 1 0 0 0 0 2h24a1 1 0 0 0 0-2z"/><path d="m14.706 55.073-3-3a1 1 0 0 0 -1.414 1.414l1.293 1.293h-7.548a1 1 0 0 1 -1-1v-7a1 1 0 0 0 -2 0v7a3 3 0 0 0 3 3h7.549l-1.293 1.293a1 1 0 0 0 1.414 1.414l3-3a1 1 0 0 0 -.001-1.414z"/></g></svg>